<svg xmlns="http://www.w3.org/2000/svg" width="116" height="24" viewBox="0 0 116 24" fill="none"><g clip-path="url(#clip0_1_921)"><path d="M0 17.472L2.11609 16.896C2.50083 19.968 5.19403 21.696 8.27197 21.696C11.5423 21.696 14.2355 19.968 14.2355 16.512C14.2355 9.216 0.192371 15.744 0.192371 6.528C0.577114 2.496 3.46269 0 8.27197 0C12.3118 0 15.1973 2.112 15.7745 5.568L13.6584 6.144C13.2736 3.648 11.5423 2.112 8.27197 2.112C5.00166 2.112 2.6932 3.648 2.6932 6.72C2.6932 13.44 16.7363 7.104 16.7363 16.704C16.7363 19.776 14.8126 24 8.27197 24C2.6932 23.808 0.384743 20.352 0 17.472Z" fill="#2E286B"></path><path d="M20.9685 23.616H18.66V0.384033H20.9685V23.616Z" fill="#2E286B"></path><path d="M25.7778 0.384033V3.07203H23.2769V0.384033H25.7778ZM25.5854 6.91203H23.2769V23.616H25.5854V6.91203Z" fill="#2E286B"></path><path d="M50.0166 13.6319V23.6159H47.7081V13.6319C47.7081 10.7519 47.5158 8.83194 45.0149 8.83194C43.2836 8.83194 39.8209 10.3679 39.8209 18.0479V23.6159H37.5124V13.6319C37.5124 10.7519 37.3201 8.83194 34.8192 8.83194C33.0879 8.83194 29.6252 10.3679 29.6252 18.0479V23.6159H27.3167V6.91194H29.6252V11.5199C30.9718 8.44794 33.0879 6.91194 35.5887 6.91194C38.4743 6.91194 39.4362 9.02394 39.6285 11.7119C40.9751 8.44794 43.0912 6.91194 45.592 6.91194C49.6318 6.71994 50.0166 10.1759 50.0166 13.6319Z" fill="#2E286B"></path><path d="M55.9801 16.704C56.3648 19.776 59.2504 20.352 61.1741 20.352C62.9055 20.352 66.1758 19.968 66.1758 16.704C66.1758 10.176 52.325 16.512 52.325 6.72C52.325 2.688 56.1725 0 61.1741 0C65.791 0 69.4461 2.304 69.8308 5.952L65.4063 6.528C65.0216 4.032 62.7131 3.648 60.9818 3.648C59.2504 3.648 56.5572 3.84 56.5572 6.912C56.5572 12.48 70.408 6.528 70.408 16.896C70.408 19.968 68.2919 24.192 60.9818 24.192C54.2488 24.192 51.7479 20.544 51.3632 17.472L55.9801 16.704Z" fill="#2E286B"></path><path d="M87.1443 6.91211V23.6161H82.7197V20.3521C81.3731 22.8481 79.4494 24.0001 77.3333 24.0001C72.7164 24.0001 72.1393 19.9681 72.1393 16.5121V6.91211H76.5639V16.3201C76.5639 19.2001 76.7562 21.1201 78.4876 21.1201C79.6418 21.1201 82.7197 20.5441 82.7197 12.8641V6.91211H87.1443Z" fill="#2E286B"></path><path d="M99.0713 6.71997V10.56C95.2239 10.56 93.3002 12.288 93.3002 18.24V23.616H88.8756V6.91197H93.3002V9.98397C94.4544 7.67997 96.3781 6.71997 99.0713 6.71997Z" fill="#2E286B"></path><path d="M115.808 16.704H103.496C103.881 19.584 105.804 20.544 107.536 20.352C109.459 20.352 111.191 19.584 112.153 17.472L115.423 19.008C114.076 22.08 111.383 23.808 107.536 24C103.111 24 99.0713 21.312 99.0713 15.552C99.0713 9.79198 103.111 6.91198 107.536 7.10398C111.96 7.10398 116 9.79198 116 15.552C116 15.744 115.808 16.128 115.808 16.704ZM103.496 13.632H111.383C110.806 11.328 109.075 10.368 107.536 10.368C105.804 10.176 104.073 11.136 103.496 13.632Z" fill="#2E286B"></path></g><defs><clipPath id="clip0_1_921"><rect width="116" height="24" fill="white"></rect></clipPath></defs></svg>